<?xml version="1.0" encoding="utf-8"?>
<!-- Generator: Adobe Illustrator 18.1.1, SVG Export Plug-In . SVG Version: 6.00 Build 0)  -->
<svg version="1.1" id="Layer_1" xmlns="http://www.w3.org/2000/svg" xmlns:xlink="http://www.w3.org/1999/xlink" x="0px" y="0px"
	 viewBox="258 25 146 139.5" enable-background="new 258 25 146 139.5" xml:space="preserve">
<g id="Layer_2">
</g>
<path stroke="#FFFFFF" stroke-width="3" stroke-miterlimit="10" d="M103.5,167.5c-16.5,0-31.6-6-43.3-16l-28.7,3.9L42.6,128
	c-3.9-8.5-6-18-6-28c0-37.3,30-67.5,67-67.5s67,30.2,67,67.5C170.5,137.3,140.5,167.5,103.5,167.5z"/>
<path stroke="#FFFFFF" stroke-width="3" stroke-miterlimit="10" d="M333.5,162c-16.5,0-31.6-6-43.3-16l-28.7,3.9l11.1-27.4
	c-3.9-8.5-6-18-6-28c0-37.3,30-67.5,67-67.5s67,30.2,67,67.5C400.5,131.8,370.5,162,333.5,162z"/>
</svg>
